<svg xmlns="http://www.w3.org/2000/svg" width="900" height="680" viewBox="0 0 900 680" role="img" aria-labelledby="title desc">
  <title id="title">Raspiaudio DAB playlist in VLC</title>
  <desc id="desc">VLC playlist view showing DAB stations streamed from the Raspiaudio Raspberry Pi service.</desc>
  <defs>
    <filter id="shadow" x="-20%" y="-20%" width="140%" height="140%">
      <feDropShadow dx="0" dy="8" stdDeviation="14" flood-color="#0f172a" flood-opacity="0.18"/>
    </filter>
  </defs>
  <rect width="900" height="680" fill="#eef4ff"/>
  <rect x="42" y="36" width="816" height="608" rx="14" fill="#fff" filter="url(#shadow)"/>
  <rect x="42" y="36" width="816" height="48" rx="14" fill="#eafff6"/>
  <path d="M42 70h816v14H42z" fill="#eafff6"/>
  <polygon points="76,50 57,78 95,78" fill="#f97316"/>
  <rect x="64" y="70" width="25" height="4" fill="#fff"/>
  <rect x="68" y="61" width="17" height="4" fill="#fff"/>
  <text x="112" y="67" font-family="Segoe UI, Arial, sans-serif" font-size="20" fill="#111827">CROONER RADIO - VLC media player</text>
  <text x="802" y="67" font-family="Segoe UI, Arial, sans-serif" font-size="20" fill="#111827">X</text>
  <text x="54" y="116" font-family="Segoe UI, Arial, sans-serif" font-size="18" fill="#111827">Media</text>
  <text x="139" y="116" font-family="Segoe UI, Arial, sans-serif" font-size="18" fill="#111827">Playback</text>
  <text x="258" y="116" font-family="Segoe UI, Arial, sans-serif" font-size="18" fill="#111827">Audio</text>
  <text x="342" y="116" font-family="Segoe UI, Arial, sans-serif" font-size="18" fill="#111827">Video</text>
  <text x="424" y="116" font-family="Segoe UI, Arial, sans-serif" font-size="18" fill="#111827">Subtitle</text>
  <text x="538" y="116" font-family="Segoe UI, Arial, sans-serif" font-size="18" fill="#111827">Tools</text>
  <text x="614" y="116" font-family="Segoe UI, Arial, sans-serif" font-size="18" fill="#111827">View</text>
  <text x="682" y="116" font-family="Segoe UI, Arial, sans-serif" font-size="18" fill="#111827">Help</text>
  <rect x="42" y="134" width="222" height="432" fill="#f8fafc" stroke="#cbd5e1"/>
  <rect x="48" y="162" width="210" height="38" fill="#d9dde4" stroke="#9aa4b2"/>
  <text x="90" y="188" font-family="Segoe UI, Arial, sans-serif" font-size="19" fill="#111827">Playlist [00:00]</text>
  <text x="54" y="236" font-family="Segoe UI, Arial, sans-serif" font-size="17" fill="#111827">Media Library</text>
  <text x="54" y="294" font-family="Segoe UI, Arial, sans-serif" font-size="17" font-weight="700" fill="#111827">My Computer</text>
  <text x="78" y="332" font-family="Segoe UI, Arial, sans-serif" font-size="17" fill="#111827">My Videos</text>
  <text x="78" y="372" font-family="Segoe UI, Arial, sans-serif" font-size="17" fill="#111827">My Music</text>
  <text x="78" y="412" font-family="Segoe UI, Arial, sans-serif" font-size="17" fill="#111827">My Pictures</text>
  <text x="54" y="476" font-family="Segoe UI, Arial, sans-serif" font-size="17" font-weight="700" fill="#111827">Devices</text>
  <rect x="62" y="498" width="166" height="90" rx="8" fill="#fff" stroke="#cbd5e1"/>
  <polygon points="145,515 112,574 178,574" fill="#f97316"/>
  <rect x="124" y="557" width="42" height="8" fill="#fff"/>
  <rect x="132" y="538" width="28" height="8" fill="#fff"/>
  <circle cx="182" cy="568" r="30" fill="#d1d5db" opacity="0.8"/>
  <circle cx="182" cy="568" r="10" fill="#fff"/>
  <rect x="304" y="138" width="554" height="56" fill="#f8fafc"/>
  <rect x="530" y="151" width="310" height="30" fill="#fff" stroke="#cbd5e1"/>
  <text x="552" y="172" font-family="Segoe UI, Arial, sans-serif" font-size="16" fill="#94a3b8">Search</text>
  <rect x="304" y="198" width="554" height="330" fill="#fff" stroke="#cbd5e1"/>
  <rect x="304" y="198" width="554" height="34" fill="#fff"/>
  <text x="320" y="221" font-family="Segoe UI, Arial, sans-serif" font-size="18" fill="#111827">Title</text>
  <text x="626" y="221" font-family="Segoe UI, Arial, sans-serif" font-size="18" fill="#111827">Duration</text>
  <text x="736" y="221" font-family="Segoe UI, Arial, sans-serif" font-size="18" fill="#111827">Album</text>
  <line x1="616" y1="198" x2="616" y2="528" stroke="#cbd5e1"/>
  <line x1="714" y1="198" x2="714" y2="528" stroke="#cbd5e1"/>
  <g font-family="Segoe UI, Arial, sans-serif" font-size="17" fill="#111827">
    <rect x="316" y="244" width="520" height="28" fill="#f3f4f6"/>
    <text x="380" y="264">BFM BUSINESS</text>
    <rect x="316" y="276" width="520" height="28" fill="#fff"/>
    <text x="380" y="296">BFM RADIO</text>
    <rect x="316" y="308" width="520" height="28" fill="#f3f4f6"/>
    <text x="380" y="328">BONHEUR DAB+</text>
    <rect x="316" y="340" width="520" height="28" fill="#fff"/>
    <text x="380" y="360">CHANTE FRANCE</text>
    <rect x="316" y="372" width="520" height="28" fill="#f3f4f6"/>
    <text x="380" y="392">CHERIE FM</text>
    <rect x="316" y="404" width="520" height="28" fill="#fff"/>
    <text x="380" y="424">Collector</text>
    <rect x="316" y="436" width="520" height="30" fill="#5fa7e8" stroke="#1d4ed8"/>
    <text x="380" y="457">CROONER RADIO</text>
    <rect x="316" y="470" width="520" height="28" fill="#f3f4f6"/>
    <text x="380" y="490">ESPACE FM</text>
    <rect x="316" y="502" width="520" height="26" fill="#fff"/>
    <text x="380" y="522">EURADIO+</text>
  </g>
  <g fill="#f97316">
    <circle cx="348" cy="254" r="13"/><circle cx="348" cy="286" r="13"/><circle cx="348" cy="318" r="13"/>
    <circle cx="348" cy="350" r="13"/><circle cx="348" cy="382" r="13"/><circle cx="348" cy="414" r="13"/>
    <circle cx="348" cy="451" r="13"/><circle cx="348" cy="480" r="13"/><circle cx="348" cy="512" r="13"/>
  </g>
  <rect x="42" y="588" width="816" height="56" fill="#f8fafc" stroke="#cbd5e1"/>
  <polygon points="76,604 76,630 101,617" fill="#94a3b8"/>
  <rect x="123" y="604" width="34" height="34" rx="5" fill="#fff" stroke="#cbd5e1"/>
  <rect x="166" y="604" width="34" height="34" rx="5" fill="#fff" stroke="#cbd5e1"/>
  <rect x="209" y="604" width="34" height="34" rx="5" fill="#fff" stroke="#cbd5e1"/>
  <rect x="538" y="612" width="300" height="12" rx="6" fill="#fbbf24"/>
  <text x="766" y="638" font-family="Segoe UI, Arial, sans-serif" font-size="17" fill="#64748b">66%</text>
</svg>
